<svg xmlns="http://www.w3.org/2000/svg" viewBox="0 0 640 160" width="640" height="160">
  <g transform="translate(15,10) scale(0.9)" shape-rendering="crispEdges">
    <rect x="40" y="0" width="100" height="10" fill="#2E52A3"/>
    <rect x="30" y="10" width="20" height="10" fill="#2E52A3"/>
    <rect x="50" y="10" width="80" height="10" fill="#F2EDE0"/>
    <rect x="130" y="10" width="20" height="10" fill="#2E52A3"/>
    <rect x="20" y="20" width="20" height="10" fill="#2E52A3"/>
    <rect x="40" y="20" width="100" height="10" fill="#F2EDE0"/>
    <rect x="140" y="20" width="20" height="10" fill="#2E52A3"/>
    <rect x="20" y="30" width="20" height="10" fill="#2E52A3"/>
    <rect x="40" y="30" width="100" height="10" fill="#F2EDE0"/>
    <rect x="140" y="30" width="20" height="10" fill="#2E52A3"/>
    <rect x="20" y="40" width="20" height="10" fill="#2E52A3"/>
    <rect x="40" y="40" width="60" height="10" fill="#DE7350"/>
    <rect x="100" y="40" width="40" height="10" fill="#F2EDE0"/>
    <rect x="140" y="40" width="20" height="10" fill="#2E52A3"/>
    <rect x="20" y="50" width="20" height="10" fill="#2E52A3"/>
    <rect x="40" y="50" width="100" height="10" fill="#DE7350"/>
    <rect x="140" y="50" width="20" height="10" fill="#2E52A3"/>
    <rect x="20" y="60" width="20" height="10" fill="#2E52A3"/>
    <rect x="40" y="60" width="10" height="10" fill="#DE7350"/>
    <rect x="50" y="60" width="10" height="10" fill="#22253C"/>
    <rect x="60" y="60" width="10" height="10" fill="#DE7350"/>
    <rect x="70" y="60" width="10" height="10" fill="#22253C"/>
    <rect x="80" y="60" width="30" height="10" fill="#DE7350"/>
    <rect x="110" y="60" width="10" height="10" fill="#22253C"/>
    <rect x="120" y="60" width="10" height="10" fill="#DE7350"/>
    <rect x="130" y="60" width="10" height="10" fill="#22253C"/>
    <rect x="140" y="60" width="20" height="10" fill="#2E52A3"/>
    <rect x="20" y="70" width="20" height="10" fill="#2E52A3"/>
    <rect x="40" y="70" width="20" height="10" fill="#DE7350"/>
    <rect x="60" y="70" width="10" height="10" fill="#22253C"/>
    <rect x="70" y="70" width="50" height="10" fill="#DE7350"/>
    <rect x="120" y="70" width="10" height="10" fill="#22253C"/>
    <rect x="130" y="70" width="10" height="10" fill="#DE7350"/>
    <rect x="140" y="70" width="20" height="10" fill="#2E52A3"/>
    <rect x="160" y="70" width="20" height="10" fill="#DE7350"/>
    <rect x="0" y="80" width="150" height="10" fill="#DE7350"/>
    <rect x="150" y="80" width="10" height="10" fill="#2E52A3"/>
    <rect x="160" y="80" width="20" height="10" fill="#DE7350"/>
    <rect x="0" y="90" width="180" height="10" fill="#DE7350"/>
    <rect x="20" y="100" width="130" height="10" fill="#DE7350"/>
    <rect x="30" y="110" width="120" height="10" fill="#DE7350"/>
    <rect x="30" y="120" width="120" height="10" fill="#DE7350"/>
    <rect x="30" y="130" width="20" height="10" fill="#DE7350"/>
    <rect x="60" y="130" width="20" height="10" fill="#DE7350"/>
    <rect x="100" y="130" width="20" height="10" fill="#DE7350"/>
    <rect x="130" y="130" width="20" height="10" fill="#DE7350"/>
    <rect x="20" y="140" width="20" height="10" fill="#DE7350"/>
    <rect x="50" y="140" width="20" height="10" fill="#DE7350"/>
    <rect x="90" y="140" width="20" height="10" fill="#DE7350"/>
    <rect x="120" y="140" width="20" height="10" fill="#DE7350"/>
  </g>
  <g font-family="Verdana,Geneva,DejaVu Sans,sans-serif">
    <text x="210" y="75" font-size="26" font-weight="bold" fill="#DE7350">Special thanks to Claude Fable</text>
    <text x="210" y="104" font-size="17" fill="#8B8B8B">for making this project possible</text>
  </g>
</svg>
